<?xml version="1.0" standalone="no"?>
<svg xmlns:xlink="http://www.w3.org/1999/xlink" id="wave" style="transform:rotate(0deg); transition: 0.3s" viewBox="0 0 1440 490" version="1.1" xmlns="http://www.w3.org/2000/svg"><defs><linearGradient id="sw-gradient-0" x1="0" x2="0" y1="1" y2="0"><stop stop-color="rgba(255, 215, 0, 1)" offset="0%"/><stop stop-color="rgba(255, 215, 0, 1)" offset="100%"/></linearGradient></defs><path style="transform:translate(0, 0px); opacity:1" fill="url(#sw-gradient-0)" d="M0,196L60,212.3C120,229,240,261,360,269.5C480,278,600,261,720,245C840,229,960,212,1080,245C1200,278,1320,359,1440,375.7C1560,392,1680,343,1800,269.5C1920,196,2040,98,2160,98C2280,98,2400,196,2520,204.2C2640,212,2760,131,2880,122.5C3000,114,3120,180,3240,228.7C3360,278,3480,310,3600,326.7C3720,343,3840,343,3960,294C4080,245,4200,147,4320,122.5C4440,98,4560,147,4680,179.7C4800,212,4920,229,5040,204.2C5160,180,5280,114,5400,106.2C5520,98,5640,147,5760,155.2C5880,163,6000,131,6120,163.3C6240,196,6360,294,6480,318.5C6600,343,6720,294,6840,245C6960,196,7080,147,7200,163.3C7320,180,7440,261,7560,302.2C7680,343,7800,343,7920,302.2C8040,261,8160,180,8280,147C8400,114,8520,131,8580,138.8L8640,147L8640,490L8580,490C8520,490,8400,490,8280,490C8160,490,8040,490,7920,490C7800,490,7680,490,7560,490C7440,490,7320,490,7200,490C7080,490,6960,490,6840,490C6720,490,6600,490,6480,490C6360,490,6240,490,6120,490C6000,490,5880,490,5760,490C5640,490,5520,490,5400,490C5280,490,5160,490,5040,490C4920,490,4800,490,4680,490C4560,490,4440,490,4320,490C4200,490,4080,490,3960,490C3840,490,3720,490,3600,490C3480,490,3360,490,3240,490C3120,490,3000,490,2880,490C2760,490,2640,490,2520,490C2400,490,2280,490,2160,490C2040,490,1920,490,1800,490C1680,490,1560,490,1440,490C1320,490,1200,490,1080,490C960,490,840,490,720,490C600,490,480,490,360,490C240,490,120,490,60,490L0,490Z"/></svg>